<svg xmlns="http://www.w3.org/2000/svg" viewBox="0 0 1200 660" font-family="'Segoe UI','Helvetica Neue',Arial,sans-serif">
  <defs>
    <linearGradient id="bgGrad" x1="0%" y1="0%" x2="100%" y2="100%">
      <stop offset="0%" stop-color="#0A0A1A"/>
      <stop offset="100%" stop-color="#0F0F2E"/>
    </linearGradient>
    <linearGradient id="boxGrad" x1="0%" y1="0%" x2="0%" y2="100%">
      <stop offset="0%" stop-color="#1E1B4B"/>
      <stop offset="100%" stop-color="#15123A"/>
    </linearGradient>
    <filter id="glow">
      <feGaussianBlur stdDeviation="2" result="blur"/>
      <feMerge><feMergeNode in="blur"/><feMergeNode in="SourceGraphic"/></feMerge>
    </filter>
    <marker id="arrow" viewBox="0 0 10 10" refX="10" refY="5" markerWidth="6" markerHeight="6" orient="auto">
      <path d="M 0 0 L 10 5 L 0 10 z" fill="#818CF8"/>
    </marker>
  </defs>

  <rect width="1200" height="660" fill="url(#bgGrad)" rx="12"/>

  <text x="600" y="36" text-anchor="middle" font-size="20" font-weight="700" fill="#818CF8" filter="url(#glow)">Synapsis Architecture</text>

  <!-- AI Agents (external, left) -->
  <rect x="30" y="98" width="85" height="54" rx="6" fill="#1E1B4B" stroke="#818CF8" stroke-width="1" stroke-dasharray="4,3"/>
  <text x="72" y="120" text-anchor="middle" font-size="11" font-weight="600" fill="#A78BFA">AI Agents</text>
  <text x="72" y="138" text-anchor="middle" font-size="8" fill="#818CF8">MCP Protocol</text>

  <line x1="115" y1="125" x2="170" y2="125" stroke="#818CF8" stroke-width="1.2" stroke-dasharray="4,3" opacity="0.5"/>
  <text x="142" y="118" text-anchor="middle" font-size="8" fill="#6366F1">MCP</text>

  <!-- Presentation Layer -->
  <rect x="140" y="65" width="1000" height="110" rx="8" fill="url(#boxGrad)" stroke="#818CF8" stroke-width="1.5"/>
  <text x="155" y="85" font-size="10" font-weight="600" fill="#818CF8" letter-spacing="1">PRESENTATION</text>

  <rect x="170" y="98" width="200" height="54" rx="6" fill="#1E1B4B" stroke="#6366F1" stroke-width="1"/>
  <text x="270" y="120" text-anchor="middle" font-size="12" font-weight="600" fill="#E0E0FF">MCP Server</text>
  <text x="270" y="138" text-anchor="middle" font-size="9" fill="#818CF8">HTTP/SSE + Stdio</text>

  <rect x="410" y="98" width="200" height="54" rx="6" fill="#1E1B4B" stroke="#6366F1" stroke-width="1"/>
  <text x="510" y="120" text-anchor="middle" font-size="12" font-weight="600" fill="#E0E0FF">CLI</text>
  <text x="510" y="138" text-anchor="middle" font-size="9" fill="#818CF8">Command Line Interface</text>

  <rect x="650" y="98" width="200" height="54" rx="6" fill="#1E1B4B" stroke="#6366F1" stroke-width="1"/>
  <text x="750" y="120" text-anchor="middle" font-size="12" font-weight="600" fill="#E0E0FF">TUI</text>
  <text x="750" y="138" text-anchor="middle" font-size="9" fill="#818CF8">Terminal UI</text>

  <rect x="890" y="98" width="200" height="54" rx="6" fill="#1E1B4B" stroke="#6366F1" stroke-width="1"/>
  <text x="990" y="120" text-anchor="middle" font-size="12" font-weight="600" fill="#E0E0FF">HTTP Transport</text>
  <text x="990" y="138" text-anchor="middle" font-size="9" fill="#818CF8">SSE / REST</text>

  <!-- Arrows Presentation → Core -->
  <line x1="270" y1="152" x2="270" y2="228" stroke="#818CF8" stroke-width="2" marker-end="url(#arrow)"/>
  <line x1="510" y1="152" x2="510" y2="228" stroke="#818CF8" stroke-width="2" marker-end="url(#arrow)"/>
  <line x1="750" y1="152" x2="750" y2="228" stroke="#818CF8" stroke-width="2" marker-end="url(#arrow)"/>
  <line x1="990" y1="152" x2="990" y2="228" stroke="#818CF8" stroke-width="2" marker-end="url(#arrow)"/>

  <!-- Core Layer -->
  <rect x="140" y="228" width="1000" height="210" rx="8" fill="url(#boxGrad)" stroke="#A78BFA" stroke-width="1.5"/>
  <text x="155" y="248" font-size="10" font-weight="600" fill="#A78BFA" letter-spacing="1">CORE</text>

  <!-- Row 1 -->
  <rect x="170" y="264" width="200" height="54" rx="6" fill="#1E1B4B" stroke="#A78BFA" stroke-width="1"/>
  <text x="270" y="286" text-anchor="middle" font-size="12" font-weight="600" fill="#E0E0FF">Orchestrator</text>
  <text x="270" y="304" text-anchor="middle" font-size="9" fill="#818CF8">Agent / Task / Message routing</text>

  <rect x="410" y="264" width="200" height="54" rx="6" fill="#1E1B4B" stroke="#A78BFA" stroke-width="1"/>
  <text x="510" y="286" text-anchor="middle" font-size="12" font-weight="600" fill="#E0E0FF">Worker Pool</text>
  <text x="510" y="304" text-anchor="middle" font-size="9" fill="#818CF8">Shell / File / Code / Git / Search</text>

  <rect x="650" y="264" width="200" height="54" rx="6" fill="#1E1B4B" stroke="#A78BFA" stroke-width="1"/>
  <text x="750" y="286" text-anchor="middle" font-size="12" font-weight="600" fill="#E0E0FF">Task Queue</text>
  <text x="750" y="304" text-anchor="middle" font-size="9" fill="#818CF8">Priority / Auto-assign / Retry</text>

  <rect x="890" y="264" width="200" height="54" rx="6" fill="#1E1B4B" stroke="#A78BFA" stroke-width="1"/>
  <text x="990" y="286" text-anchor="middle" font-size="12" font-weight="600" fill="#E0E0FF">Auth &amp; Security</text>
  <text x="990" y="304" text-anchor="middle" font-size="9" fill="#818CF8">TPM / PQC / Access Control</text>

  <!-- Row 2 -->
  <rect x="170" y="340" width="200" height="54" rx="6" fill="#1E1B4B" stroke="#A78BFA" stroke-width="1"/>
  <text x="270" y="362" text-anchor="middle" font-size="12" font-weight="600" fill="#E0E0FF">Agent Connectors</text>
  <text x="270" y="380" text-anchor="middle" font-size="9" fill="#818CF8">OpenCode / Qwen / Claude</text>

  <rect x="410" y="340" width="200" height="54" rx="6" fill="#1E1B4B" stroke="#A78BFA" stroke-width="1"/>
  <text x="510" y="362" text-anchor="middle" font-size="12" font-weight="600" fill="#E0E0FF">Watchdog</text>
  <text x="510" y="380" text-anchor="middle" font-size="9" fill="#818CF8">FS Integrity / Event Monitoring</text>

  <rect x="650" y="340" width="200" height="54" rx="6" fill="#1E1B4B" stroke="#A78BFA" stroke-width="1"/>
  <text x="750" y="362" text-anchor="middle" font-size="12" font-weight="600" fill="#E0E0FF">Recycle Bin</text>
  <text x="750" y="380" text-anchor="middle" font-size="9" fill="#818CF8">TTL / Categorization / Undelete</text>

  <rect x="890" y="340" width="200" height="54" rx="6" fill="#1E1B4B" stroke="#A78BFA" stroke-width="1"/>
  <text x="990" y="362" text-anchor="middle" font-size="12" font-weight="600" fill="#E0E0FF">Rate Limiter</text>
  <text x="990" y="380" text-anchor="middle" font-size="9" fill="#818CF8">Throttling / Circuit Breaker</text>

  <!-- Arrow Core → Infrastructure -->
  <line x1="640" y1="438" x2="640" y2="468" stroke="#A78BFA" stroke-width="2" marker-end="url(#arrow)" stroke-dasharray="6,4"/>

  <!-- Infrastructure Layer -->
  <rect x="140" y="468" width="1000" height="120" rx="8" fill="url(#boxGrad)" stroke="#6366F1" stroke-width="1.5"/>
  <text x="155" y="488" font-size="10" font-weight="600" fill="#818CF8" letter-spacing="1">INFRASTRUCTURE</text>

  <rect x="170" y="504" width="200" height="54" rx="6" fill="#1E1B4B" stroke="#6366F1" stroke-width="1"/>
  <text x="270" y="528" text-anchor="middle" font-size="12" font-weight="600" fill="#E0E0FF">SQLite + FTS5</text>
  <text x="270" y="546" text-anchor="middle" font-size="9" fill="#818CF8">Observations / Sessions / Tasks</text>

  <rect x="410" y="504" width="200" height="54" rx="6" fill="#1E1B4B" stroke="#6366F1" stroke-width="1"/>
  <text x="510" y="528" text-anchor="middle" font-size="12" font-weight="600" fill="#E0E0FF">Agent Registry</text>
  <text x="510" y="546" text-anchor="middle" font-size="9" fill="#818CF8">Skills / Capacity / Discovery</text>

  <rect x="650" y="504" width="200" height="54" rx="6" fill="#1E1B4B" stroke="#6366F1" stroke-width="1"/>
  <text x="750" y="528" text-anchor="middle" font-size="12" font-weight="600" fill="#E0E0FF">Context Registry</text>
  <text x="750" y="546" text-anchor="middle" font-size="9" fill="#818CF8">Tiered / Compression / Isolation</text>

  <rect x="890" y="504" width="200" height="54" rx="6" fill="#1E1B4B" stroke="#6366F1" stroke-width="1"/>
  <text x="990" y="528" text-anchor="middle" font-size="12" font-weight="600" fill="#E0E0FF">PQC Vault</text>
  <text x="990" y="546" text-anchor="middle" font-size="9" fill="#818CF8">AES-256-GCM / Key Derivation</text>
</svg>
